<?xml version="1.0" standalone="no"?>
<!DOCTYPE svg PUBLIC "-//W3C//DTD SVG 20010904//EN"
 "http://www.w3.org/TR/2001/REC-SVG-20010904/DTD/svg10.dtd">
<svg version="1.0" xmlns="http://www.w3.org/2000/svg"
 width="1536.000000pt" height="1024.000000pt" viewBox="0 0 1536.000000 1024.000000"
 preserveAspectRatio="xMidYMid meet">

<g transform="translate(0.000000,1024.000000) scale(0.100000,-0.100000)"
fill="#000000" stroke="none">
<path d="M7280 7795 c-217 -73 -533 -180 -702 -237 -170 -56 -308 -105 -308
-108 0 -3 113 -45 251 -94 175 -62 247 -92 240 -99 -7 -7 -11 -63 -11 -139 0
-123 -1 -128 -26 -153 -26 -26 -26 -55 0 -83 10 -10 10 -24 0 -65 -8 -29 -20
-85 -27 -124 l-14 -73 36 -1 c20 -1 57 -2 83 -3 l47 -2 -6 31 c-4 16 -16 75
-29 130 -19 85 -20 101 -8 108 22 12 18 74 -6 89 -18 12 -20 24 -20 153 l0
141 198 83 c108 45 283 117 389 159 128 51 194 83 198 95 18 51 162 64 208 19
l21 -22 -22 -22 c-20 -21 -33 -23 -120 -24 l-97 -2 -280 -117 c-154 -64 -315
-131 -357 -147 -43 -17 -78 -34 -78 -39 0 -4 17 -13 38 -19 20 -7 41 -16 45
-20 4 -4 9 -143 10 -310 l2 -302 105 -37 c209 -74 374 -156 558 -278 l84 -55
41 30 c150 111 414 245 612 312 l80 27 3 310 2 310 33 10 c17 6 97 34 177 63
80 28 218 77 308 107 90 30 161 57 159 59 -5 5 -1406 474 -1415 473 -4 0 -185
-60 -402 -134z"/>
<path d="M5765 6473 c-215 -17 -665 -90 -687 -111 -8 -8 -98 -342 -98 -365 0
-13 18 -10 103 19 426 144 785 207 1187 208 387 0 670 -54 962 -184 264 -118
571 -354 748 -576 l57 -71 39 23 c105 64 293 104 487 104 172 0 277 -16 438
-69 66 -22 119 -35 119 -30 0 5 -14 81 -31 169 -30 153 -33 161 -58 168 -14 4
-134 7 -266 7 -196 0 -255 -3 -325 -19 -101 -21 -254 -69 -327 -101 -51 -23
-52 -23 -69 -4 -11 12 -14 23 -8 29 11 11 176 75 262 102 379 117 816 98 1290
-55 102 -33 131 -39 128 -27 -2 8 -17 67 -31 130 -15 63 -33 138 -39 165 l-12
50 -135 22 c-391 63 -733 53 -1065 -32 -163 -42 -253 -76 -415 -159 l-127 -64
-31 32 -32 33 63 41 c227 143 515 247 823 298 136 23 551 26 715 6 307 -38
465 -72 750 -163 102 -32 188 -59 191 -59 4 0 -15 84 -42 188 -27 103 -49 188
-49 189 0 3 -175 42 -255 57 -215 39 -365 50 -700 51 -356 0 -482 -11 -710
-61 -278 -61 -584 -190 -825 -347 l-115 -75 -35 28 c-191 150 -522 304 -819
381 -227 59 -344 71 -691 74 -173 1 -337 1 -365 -2z"/>
<path d="M6118 6090 c-59 -4 -172 -18 -253 -31 l-145 -23 -10 -35 c-8 -34 -51
-228 -65 -298 -4 -18 -4 -33 -1 -33 3 0 65 20 138 45 301 102 621 146 903 124
391 -31 684 -151 978 -402 l58 -50 -23 -24 -23 -23 -63 59 c-213 200 -481 324
-777 360 -100 12 -321 14 -439 5 l-76 -7 -11 -41 c-19 -69 -68 -300 -65 -303
1 -2 29 6 62 17 277 96 558 113 799 50 89 -24 239 -91 309 -139 62 -43 159
-134 218 -204 26 -32 48 -54 48 -49 0 17 139 159 213 216 l76 60 -21 29 c-39
54 -202 212 -283 274 -167 126 -346 229 -518 297 -97 39 -306 93 -427 111
-125 19 -451 27 -602 15z"/>
<path d="M6480 4904 c-39 -58 -70 -109 -70 -112 0 -8 105 -77 130 -87 9 -3 20
3 27 14 11 17 7 23 -25 47 -20 15 -39 29 -41 31 -2 2 1 14 9 27 l13 25 38 -26
c38 -25 40 -25 60 -7 20 18 20 18 -18 41 -21 13 -42 24 -48 26 -5 2 0 13 11
25 l21 22 46 -25 c45 -26 46 -26 56 -6 6 11 11 22 11 24 0 7 -130 87 -141 87
-5 0 -41 -48 -79 -106z"/>
<path d="M8784 4969 c-32 -23 -63 -45 -68 -50 -5 -4 9 -38 34 -79 47 -78 47
-77 102 -15 22 25 30 28 45 19 11 -7 18 -23 18 -40 0 -26 -3 -29 -32 -29 -18
0 -40 -8 -50 -18 -17 -18 -17 -19 1 -33 33 -24 81 -17 121 17 47 42 49 96 6
140 -35 35 -72 37 -120 8 -27 -16 -36 -18 -42 -7 -14 21 -11 26 36 54 25 14
45 28 45 31 0 11 -21 43 -29 43 -4 0 -34 -18 -67 -41z"/>
<path d="M6779 4830 c-9 -5 -22 -23 -28 -39 -15 -34 -1 -70 43 -110 14 -14 26
-33 26 -43 0 -27 -38 -23 -52 7 -6 13 -24 29 -41 35 -39 13 -37 13 -37 -10 0
-86 127 -144 185 -85 36 35 32 68 -15 119 -46 50 -52 76 -16 76 18 0 27 -8 35
-30 7 -23 16 -30 35 -30 34 0 40 14 22 49 -31 58 -109 89 -157 61z"/>
<path d="M8523 4828 c-39 -10 -73 -51 -73 -88 0 -34 5 -38 35 -33 17 4 25 13
27 32 4 34 42 42 58 12 13 -26 1 -78 -33 -136 -19 -32 -22 -46 -14 -68 5 -16
12 -27 16 -25 4 2 47 21 94 42 77 35 87 42 81 60 -11 34 -8 34 -86 1 -16 -6
-15 -2 3 50 21 59 19 95 -5 128 -19 24 -64 35 -103 25z"/>
<path d="M7050 4731 c0 -5 -3 -16 -6 -24 -3 -10 5 -18 25 -25 37 -13 38 -23 8
-104 -41 -110 -41 -113 -2 -125 l34 -11 32 102 c18 55 33 102 35 104 1 2 18
-1 38 -6 34 -10 36 -9 42 14 4 14 5 26 3 28 -7 5 -186 56 -197 56 -7 0 -12 -4
-12 -9z"/>
<path d="M8202 4715 c-48 -21 -66 -71 -52 -142 21 -98 90 -150 161 -120 46 19
61 39 66 91 6 50 -32 147 -64 164 -35 19 -78 21 -111 7z m77 -71 c28 -36 38
-111 18 -131 -30 -30 -67 10 -81 89 -5 26 -2 40 9 52 22 22 30 20 54 -10z"/>
<path d="M7892 4655 c-30 -13 -52 -47 -52 -81 0 -9 11 -14 30 -14 17 0 30 4
30 8 0 5 6 17 14 27 12 16 16 17 30 6 27 -23 18 -57 -35 -126 -30 -40 -49 -74
-47 -86 4 -23 0 -23 111 -8 87 13 87 13 87 42 l0 30 -51 -6 -52 -6 20 22 c32
34 53 83 53 120 0 63 -72 102 -138 72z"/>
<path d="M7360 4655 c0 -10 -31 -221 -35 -242 -5 -20 0 -22 78 -28 94 -8 128
3 166 51 41 53 21 158 -37 188 -44 22 -172 46 -172 31z m106 -65 c25 0 54 -39
54 -73 0 -44 -38 -80 -81 -79 -17 0 -33 3 -35 5 -2 2 1 39 7 81 9 60 15 76 26
72 8 -3 21 -6 29 -6z"/>
<path d="M11009 3516 c-98 -26 -151 -78 -163 -160 -18 -116 39 -186 190 -236
107 -36 134 -56 134 -98 0 -47 -30 -66 -104 -64 -57 0 -148 18 -198 37 -13 5
-18 -4 -25 -57 -5 -35 -7 -66 -3 -70 15 -19 169 -40 255 -36 182 10 265 78
265 216 0 91 -47 148 -158 188 -167 61 -180 70 -169 116 13 49 104 62 219 32
33 -8 62 -13 64 -11 7 7 27 117 22 122 -3 3 -36 12 -74 20 -83 18 -192 18
-255 1z"/>
<path d="M4000 3180 l0 -340 95 0 95 0 0 140 0 140 110 0 110 0 0 -140 0 -140
95 0 95 0 0 340 0 341 -92 -3 -93 -3 -3 -132 -3 -133 -109 0 -110 0 0 135 0
135 -95 0 -95 0 0 -340z"/>
<path d="M4770 3180 l0 -340 240 0 240 0 0 59 0 58 -52 7 c-29 3 -97 6 -150 6
l-98 0 0 75 0 75 130 0 130 0 0 65 0 65 -130 0 -131 0 3 68 3 67 148 3 147 3
0 64 0 65 -240 0 -240 0 0 -340z"/>
<path d="M5390 3180 l0 -340 225 0 225 0 0 65 0 65 -130 0 -130 0 0 275 0 275
-95 0 -95 0 0 -340z"/>
<path d="M5940 3181 l0 -341 89 0 89 0 7 105 7 105 77 0 c178 0 281 73 297
211 8 72 -9 131 -52 179 -56 62 -99 72 -321 78 l-193 4 0 -341z m343 185 c56
-52 40 -153 -29 -182 -20 -8 -56 -14 -82 -12 l-47 3 -3 108 -3 107 69 0 c59 0
73 -4 95 -24z"/>
<path d="M6870 3180 l0 -340 85 0 85 0 0 203 0 202 65 -133 64 -133 68 3 68 3
60 132 60 131 3 -204 2 -204 85 0 85 0 0 340 0 340 -93 0 -93 0 -86 -177 -87
-178 -85 178 -85 177 -101 0 -100 0 0 -340z"/>
<path d="M7710 3510 c0 -11 44 -91 159 -290 l66 -115 5 -130 5 -130 95 0 95 0
2 123 2 123 110 198 c61 108 113 205 117 214 5 15 -4 17 -90 17 l-96 0 -56
-117 c-31 -65 -60 -129 -65 -142 -9 -21 -16 -10 -72 105 -35 71 -66 135 -70
142 -10 15 -207 17 -207 2z"/>
<path d="M8750 3180 l0 -340 95 0 95 0 0 340 0 340 -95 0 -95 0 0 -340z"/>
<path d="M9120 3180 l0 -340 240 0 241 0 -3 63 -3 62 -142 3 -143 3 0 74 0 75
130 0 131 0 -3 63 -3 62 -127 3 -128 3 0 69 0 70 140 0 c138 0 140 0 146 23 3
13 4 41 2 63 l-3 39 -237 3 -238 2 0 -340z"/>
<path d="M9750 3180 l0 -340 220 0 220 0 0 65 0 65 -125 0 -125 0 0 275 0 275
-95 0 -95 0 0 -340z"/>
<path d="M10186 3474 c-12 -90 -18 -84 94 -84 l100 0 2 -272 3 -273 90 0 90 0
3 273 2 272 101 0 100 0 -3 63 -3 62 -286 3 -286 2 -7 -46z"/>
</g>
</svg>
